<?xml version="1.0" encoding="UTF-8"?>
<svg xmlns="http://www.w3.org/2000/svg" xmlns:xlink="http://www.w3.org/1999/xlink" width="px" height="45px" viewBox="0 0 45 45" version="1.1">
<g id="surface1">
<path style=" stroke:none;fill-rule:nonzero;fill:rgb(0%,0%,0%);fill-opacity:1;" d="M 26.496094 0.0898438 C 26.171875 0.0898438 25.871094 0.15625 25.589844 0.25 C 26.183594 0.644531 26.507812 1.171875 26.671875 1.761719 C 26.683594 1.84375 26.707031 1.902344 26.71875 1.980469 C 26.785156 3.214844 26.472656 3.34375 26.253906 3.945312 C 25.917969 4.726562 26.011719 5.5625 26.414062 6.234375 C 26.113281 3.550781 28.566406 3.109375 29.015625 2.191406 C 29.054688 1.390625 28.390625 0.855469 27.867188 0.484375 C 27.457031 0.226562 26.980469 0.0898438 26.496094 0.0898438 Z M 30.191406 0.75 C 30.144531 1.019531 30.179688 0.949219 30.167969 1.085938 C 30.15625 1.179688 30.15625 1.296875 30.144531 1.390625 C 30.121094 1.484375 30.097656 1.578125 30.0625 1.667969 C 30.042969 1.761719 30.007812 1.855469 29.96875 1.949219 L 29.84375 2.214844 C 29.808594 2.261719 29.785156 2.308594 29.75 2.355469 L 29.679688 2.457031 C 29.625 2.539062 29.566406 2.617188 29.507812 2.691406 C 29.4375 2.761719 29.378906 2.84375 29.296875 2.902344 L 29.296875 2.910156 C 29.226562 2.96875 29.15625 3.039062 29.074219 3.097656 C 28.832031 3.285156 28.554688 3.421875 28.296875 3.597656 C 28.21875 3.65625 28.132812 3.703125 28.066406 3.773438 C 27.984375 3.828125 27.910156 3.890625 27.84375 3.957031 C 27.761719 4.027344 27.703125 4.097656 27.636719 4.179688 C 27.578125 4.25 27.507812 4.328125 27.460938 4.410156 C 27.402344 4.492188 27.347656 4.570312 27.296875 4.65625 C 27.25 4.75 27.21875 4.828125 27.171875 4.921875 C 27.136719 5.015625 27.101562 5.097656 27.078125 5.191406 C 27.046875 5.285156 27.019531 5.382812 26.996094 5.480469 C 26.984375 5.527344 26.984375 5.585938 26.972656 5.628906 C 26.960938 5.675781 26.960938 5.722656 26.949219 5.769531 C 26.949219 5.863281 26.9375 5.96875 26.9375 6.0625 C 26.9375 6.132812 26.9375 6.199219 26.949219 6.269531 C 26.949219 6.363281 26.960938 6.457031 26.984375 6.5625 C 26.996094 6.65625 27.019531 6.75 27.042969 6.84375 C 27.078125 6.933594 27.101562 7.027344 27.136719 7.121094 C 27.160156 7.175781 27.191406 7.234375 27.21875 7.28125 L 24.542969 6.246094 C 24.09375 6.121094 23.648438 6.003906 23.195312 5.898438 L 22.464844 5.722656 C 21.765625 5.585938 21.058594 5.480469 20.347656 5.410156 C 20.324219 5.410156 20.3125 5.398438 20.292969 5.398438 C 19.09375 5.28125 17.886719 5.265625 16.6875 5.351562 C 15.980469 5.398438 15.269531 5.492188 14.5625 5.609375 C 14.035156 5.699219 13.511719 5.808594 12.992188 5.933594 L 12.46875 6.074219 C 12.296875 6.140625 12.132812 6.222656 11.96875 6.292969 L 11.585938 6.46875 C 11.5625 6.480469 11.539062 6.480469 11.53125 6.492188 C 11.410156 6.550781 11.308594 6.597656 11.203125 6.65625 C 11.050781 6.722656 10.90625 6.792969 10.761719 6.875 C 10.679688 6.910156 10.597656 6.957031 10.527344 6.992188 C 10.320312 7.109375 10.214844 7.167969 10.121094 7.222656 C 10.027344 7.277344 9.933594 7.335938 9.84375 7.398438 C 9.761719 7.453125 9.679688 7.5 9.609375 7.558594 C 9.601562 7.574219 9.585938 7.574219 9.574219 7.585938 C 9.507812 7.632812 9.425781 7.6875 9.355469 7.746094 L 9.332031 7.769531 L 9.15625 7.910156 C 9.136719 7.921875 9.109375 7.945312 9.089844 7.957031 C 9.03125 8.003906 8.972656 8.0625 8.914062 8.105469 C 8.902344 8.128906 8.878906 8.144531 8.867188 8.152344 C 8.796875 8.222656 8.726562 8.28125 8.660156 8.351562 C 8.644531 8.351562 8.644531 8.363281 8.632812 8.375 C 8.5625 8.4375 8.492188 8.503906 8.425781 8.574219 C 8.414062 8.582031 8.414062 8.59375 8.402344 8.59375 C 8.339844 8.65625 8.28125 8.71875 8.226562 8.78125 C 8.203125 8.804688 8.171875 8.828125 8.148438 8.851562 C 8.085938 8.921875 8.019531 8.992188 7.949219 9.058594 C 7.9375 9.082031 7.914062 9.09375 7.902344 9.117188 C 7.808594 9.210938 7.730469 9.304688 7.636719 9.398438 L 7.601562 9.429688 C 7.414062 9.628906 7.21875 9.828125 7.007812 10 C 6.796875 10.1875 6.578125 10.359375 6.355469 10.511719 C 5.910156 10.832031 5.433594 11.09375 4.925781 11.300781 C 4.683594 11.40625 4.425781 11.5 4.171875 11.582031 C 3.683594 11.6875 3.183594 11.882812 2.753906 11.917969 C 2.660156 11.917969 2.558594 11.941406 2.464844 11.953125 L 2.171875 12.023438 L 1.894531 12.128906 C 1.800781 12.164062 1.707031 12.210938 1.617188 12.253906 C 1.535156 12.3125 1.441406 12.359375 1.359375 12.417969 C 1.277344 12.476562 1.199219 12.542969 1.125 12.617188 C 1.046875 12.671875 0.964844 12.753906 0.894531 12.824219 C 0.824219 12.90625 0.753906 12.976562 0.699219 13.058594 C 0.640625 13.152344 0.570312 13.230469 0.523438 13.324219 C 0.460938 13.410156 0.40625 13.5 0.359375 13.59375 C 0.3125 13.695312 0.265625 13.789062 0.234375 13.894531 C 0.195312 13.988281 0.164062 14.09375 0.128906 14.195312 C 0.105469 14.289062 0.0820312 14.382812 0.0703125 14.476562 C 0.0703125 14.484375 0.0585938 14.5 0.0585938 14.511719 C 0.0351562 14.617188 0.0351562 14.753906 0.0234375 14.824219 C 0.0117188 14.90625 0 14.972656 0 15.054688 C -0.00390625 15.257812 0.046875 15.457031 0.140625 15.636719 L 0.140625 15.648438 C 0.175781 15.71875 0.222656 15.789062 0.269531 15.859375 C 0.3125 15.929688 0.363281 15.996094 0.417969 16.066406 C 0.476562 16.125 0.546875 16.195312 0.617188 16.253906 C 0.683594 16.324219 0.757812 16.382812 0.835938 16.441406 C 1.117188 16.683594 1.183594 16.765625 1.546875 16.949219 C 1.601562 16.984375 1.660156 17.007812 1.734375 17.042969 C 1.742188 17.042969 1.753906 17.054688 1.765625 17.054688 C 1.765625 17.078125 1.765625 17.089844 1.777344 17.113281 C 1.804688 17.304688 1.855469 17.492188 1.925781 17.671875 C 1.964844 17.742188 1.988281 17.8125 2.019531 17.878906 C 2.035156 17.90625 2.046875 17.925781 2.058594 17.9375 C 2.105469 18.03125 2.152344 18.113281 2.195312 18.195312 L 2.371094 18.4375 C 2.429688 18.507812 2.5 18.589844 2.570312 18.660156 C 2.636719 18.730469 2.707031 18.789062 2.789062 18.855469 C 2.789062 18.855469 2.800781 18.867188 2.8125 18.867188 C 2.882812 18.925781 2.953125 18.984375 3.023438 19.03125 C 3.101562 19.089844 3.1875 19.136719 3.277344 19.179688 C 3.359375 19.226562 3.453125 19.273438 3.542969 19.3125 C 3.789062 19.402344 3.800781 19.402344 3.824219 19.414062 C 3.871094 19.425781 3.929688 19.4375 3.972656 19.449219 C 3.9375 20.078125 3.929688 20.667969 4.023438 20.878906 C 4.125 21.109375 4.636719 20.402344 5.148438 19.589844 C 5.078125 20.390625 5.03125 21.332031 5.148438 21.609375 C 5.277344 21.902344 5.972656 20.996094 6.578125 19.996094 C 14.816406 18.089844 22.335938 23.78125 23.125 31.828125 C 22.976562 30.570312 21.429688 29.875 20.71875 30.046875 C 20.371094 30.90625 19.78125 32.011719 18.828125 32.699219 C 18.90625 31.929688 18.875 31.140625 18.710938 30.375 C 18.449219 31.441406 17.957031 32.441406 17.269531 33.300781 C 16.167969 33.382812 15.0625 32.847656 14.480469 32.046875 C 14.433594 32.011719 14.421875 31.941406 14.386719 31.894531 C 14.351562 31.816406 14.316406 31.734375 14.292969 31.652344 C 14.210938 31.324219 14.210938 31.246094 14.210938 31.152344 L 14.210938 30.976562 C 14.226562 30.894531 14.246094 30.8125 14.269531 30.734375 C 14.296875 30.652344 14.316406 30.570312 14.351562 30.488281 C 14.398438 30.410156 14.433594 30.328125 14.492188 30.246094 C 14.6875 29.6875 14.6875 29.234375 14.328125 28.96875 C 14.0625 28.839844 14.003906 28.816406 13.957031 28.804688 L 13.863281 28.769531 C 13.292969 28.664062 13.207031 28.65625 13.121094 28.652344 C 13.0625 28.652344 13.003906 28.664062 12.945312 28.664062 C 12.609375 28.710938 12.527344 28.722656 12.445312 28.746094 C 12.363281 28.769531 12.28125 28.796875 12.203125 28.828125 C 12.121094 28.863281 12.050781 28.898438 11.96875 28.933594 C 11.902344 28.96875 11.832031 29.015625 11.75 29.050781 C 9.042969 30.816406 10.65625 34.953125 12.503906 36.148438 C 11.808594 36.277344 11.097656 36.425781 10.902344 36.578125 L 10.875 36.601562 C 11.378906 36.902344 11.902344 37.160156 12.445312 37.382812 C 13.191406 37.625 13.980469 37.84375 14.328125 37.9375 L 14.328125 37.949219 C 15.292969 38.148438 16.277344 38.21875 17.257812 38.160156 C 22.40625 37.800781 26.625 33.882812 27.390625 28.722656 L 27.460938 29.023438 C 27.496094 29.234375 27.542969 29.457031 27.566406 29.675781 L 27.566406 29.6875 C 27.589844 29.792969 27.601562 29.898438 27.613281 29.992188 L 27.613281 30.035156 C 27.625 30.140625 27.636719 30.246094 27.636719 30.339844 C 27.648438 30.46875 27.65625 30.59375 27.65625 30.722656 L 27.65625 30.910156 C 27.65625 30.964844 27.671875 31.035156 27.671875 31.09375 C 27.671875 31.164062 27.65625 31.234375 27.65625 31.304688 L 27.65625 31.464844 C 27.65625 31.546875 27.648438 31.617188 27.648438 31.699219 C 27.648438 31.746094 27.648438 31.792969 27.636719 31.847656 C 27.636719 31.929688 27.625 32.011719 27.625 32.105469 C 27.613281 32.140625 27.613281 32.175781 27.613281 32.207031 L 27.574219 32.476562 C 27.574219 32.511719 27.574219 32.546875 27.566406 32.582031 C 27.554688 32.699219 27.53125 32.804688 27.519531 32.917969 L 27.519531 32.941406 L 27.449219 33.269531 L 27.449219 33.300781 L 27.378906 33.613281 C 27.378906 33.628906 27.367188 33.652344 27.367188 33.660156 C 27.347656 33.769531 27.320312 33.875 27.285156 33.976562 L 27.285156 34.011719 C 27.25 34.125 27.21875 34.230469 27.191406 34.335938 C 27.183594 34.347656 27.183594 34.359375 27.183594 34.359375 L 27.078125 34.707031 C 27.03125 34.824219 26.996094 34.929688 26.949219 35.046875 C 26.902344 35.160156 26.867188 35.277344 26.820312 35.382812 C 26.773438 35.5 26.726562 35.601562 26.683594 35.71875 L 26.671875 35.71875 C 26.625 35.824219 26.578125 35.941406 26.519531 36.046875 C 26.472656 36.136719 26.472656 36.148438 26.460938 36.160156 C 25.691406 37.699219 24.574219 39.035156 23.195312 40.066406 C 23.101562 40.125 23.011719 40.195312 22.917969 40.265625 C 22.894531 40.285156 22.859375 40.296875 22.835938 40.320312 C 22.753906 40.382812 22.667969 40.441406 22.582031 40.496094 L 22.613281 40.566406 L 22.628906 40.566406 L 23.113281 40.496094 L 23.125 40.496094 C 23.429688 40.449219 23.730469 40.390625 24.03125 40.332031 C 24.113281 40.320312 24.207031 40.296875 24.289062 40.273438 L 24.453125 40.238281 C 24.53125 40.226562 24.613281 40.207031 24.695312 40.195312 C 24.765625 40.171875 24.835938 40.15625 24.902344 40.136719 C 26.066406 39.855469 27.191406 39.472656 28.273438 39.019531 C 26.40625 41.566406 23.921875 43.59375 21.054688 44.910156 C 22.394531 44.816406 23.730469 44.597656 25.019531 44.226562 C 29.6875 42.851562 33.632812 39.703125 36 35.449219 C 35.523438 38.140625 34.457031 40.695312 32.875 42.925781 C 34.003906 42.179688 35.042969 41.316406 35.980469 40.34375 C 38.582031 37.628906 40.289062 34.183594 40.875 30.46875 C 41.265625 32.304688 41.382812 34.199219 41.210938 36.066406 C 49.597656 24.367188 41.90625 12.234375 38.6875 9.039062 C 38.675781 9.011719 38.664062 9 38.664062 8.980469 C 38.652344 8.992188 38.652344 8.992188 38.652344 9 C 38.652344 8.992188 38.652344 8.992188 38.640625 8.980469 C 38.640625 9.117188 38.628906 9.257812 38.617188 9.398438 C 38.585938 9.65625 38.546875 9.917969 38.5 10.175781 C 38.445312 10.429688 38.375 10.6875 38.304688 10.945312 C 38.222656 11.1875 38.128906 11.441406 38.023438 11.6875 C 37.917969 11.925781 37.800781 12.164062 37.675781 12.394531 C 37.417969 12.851562 37.117188 13.28125 36.78125 13.6875 C 36.609375 13.894531 36.421875 14.078125 36.234375 14.265625 C 36.125 14.367188 36.011719 14.464844 35.898438 14.558594 L 35.628906 14.789062 C 35.421875 14.953125 35.207031 15.105469 34.980469 15.242188 C 34.757812 15.386719 34.527344 15.515625 34.292969 15.636719 C 34.050781 15.753906 33.804688 15.859375 33.5625 15.964844 C 33.066406 16.152344 32.550781 16.292969 32.027344 16.382812 C 31.761719 16.429688 31.496094 16.453125 31.238281 16.476562 C 31.050781 16.488281 30.867188 16.496094 30.679688 16.5 C 30.417969 16.496094 30.152344 16.480469 29.890625 16.453125 C 29.625 16.429688 29.359375 16.390625 29.101562 16.335938 C 28.835938 16.289062 28.578125 16.222656 28.320312 16.136719 L 28.308594 16.136719 C 28.566406 16.113281 28.820312 16.089844 29.078125 16.042969 C 29.601562 15.953125 30.113281 15.8125 30.609375 15.625 C 30.867188 15.53125 31.109375 15.417969 31.34375 15.300781 C 31.585938 15.183594 31.808594 15.054688 32.039062 14.917969 C 32.261719 14.765625 32.480469 14.617188 32.691406 14.453125 C 32.902344 14.289062 33.097656 14.113281 33.28125 13.929688 C 33.480469 13.753906 33.65625 13.558594 33.828125 13.359375 C 34.003906 13.152344 34.167969 12.941406 34.316406 12.734375 C 34.339844 12.699219 34.363281 12.652344 34.386719 12.617188 C 34.503906 12.429688 34.621094 12.242188 34.726562 12.058594 C 34.980469 11.59375 35.191406 11.109375 35.351562 10.605469 C 35.433594 10.359375 35.492188 10.105469 35.550781 9.847656 C 35.597656 9.582031 35.644531 9.328125 35.667969 9.070312 C 35.6875 8.804688 35.714844 8.535156 35.714844 8.28125 C 35.714844 8.09375 35.699219 7.910156 35.6875 7.722656 C 35.664062 7.460938 35.632812 7.203125 35.59375 6.945312 C 35.550781 6.683594 35.492188 6.421875 35.421875 6.167969 C 35.339844 5.921875 35.257812 5.667969 35.164062 5.421875 C 35.070312 5.179688 34.957031 4.933594 34.839844 4.703125 C 34.710938 4.46875 34.585938 4.238281 34.445312 4.015625 C 34.296875 3.800781 34.140625 3.585938 33.980469 3.378906 C 33.804688 3.179688 33.632812 2.980469 33.445312 2.785156 C 33.347656 2.683594 33.246094 2.585938 33.144531 2.492188 C 32.621094 2.085938 32.074219 1.703125 31.527344 1.355469 C 31.453125 1.3125 31.375 1.273438 31.296875 1.238281 C 30.949219 1.027344 30.578125 0.863281 30.191406 0.75 Z M 30.191406 0.75 "/>
</g>
</svg>
