<?xml version="1.0" encoding="UTF-8"?>
<svg xmlns="http://www.w3.org/2000/svg" xmlns:xlink="http://www.w3.org/1999/xlink" width="px" height="45px" viewBox="0 0 45 45" version="1.1">
<g id="surface1">
<path style=" stroke:none;fill-rule:nonzero;fill:rgb(0%,0%,0%);fill-opacity:1;" d="M 39.65625 11.0625 L 24.09375 2.25 C 23.085938 1.777344 21.914062 1.777344 20.90625 2.25 L 5.34375 11.0625 C 4.371094 11.625 3.765625 12.65625 3.75 13.78125 L 3.75 31.21875 C 3.765625 32.34375 4.371094 33.375 5.34375 33.9375 L 9.46875 36.28125 C 10.546875 36.917969 11.78125 37.242188 13.03125 37.21875 C 15.9375 37.21875 17.625 35.4375 17.625 32.4375 L 17.625 15.28125 C 17.625 15.023438 17.414062 14.8125 17.15625 14.8125 L 15.1875 14.8125 C 14.929688 14.8125 14.71875 15.023438 14.71875 15.28125 L 14.71875 32.4375 C 14.71875 33.84375 13.3125 35.15625 11.0625 34.03125 L 6.75 31.59375 C 6.632812 31.503906 6.5625 31.367188 6.5625 31.21875 L 6.5625 13.78125 C 6.570312 13.609375 6.636719 13.441406 6.75 13.3125 L 22.21875 4.59375 L 22.78125 4.59375 L 38.25 13.3125 C 38.363281 13.441406 38.429688 13.609375 38.4375 13.78125 L 38.4375 31.21875 C 38.4375 31.367188 38.367188 31.503906 38.25 31.59375 L 22.78125 40.3125 C 22.605469 40.414062 22.394531 40.414062 22.21875 40.3125 L 18.28125 38.0625 L 15.5625 39.09375 C 15.28125 39.1875 14.90625 39.28125 15.65625 39.75 L 20.90625 42.65625 C 21.875 43.289062 23.125 43.289062 24.09375 42.65625 L 39.65625 33.9375 C 40.628906 33.375 41.234375 32.34375 41.25 31.21875 L 41.25 13.78125 C 41.234375 12.65625 40.628906 11.625 39.65625 11.0625 Z M 39.65625 11.0625 "/>
<path style=" stroke:none;fill-rule:nonzero;fill:rgb(0%,0%,0%);fill-opacity:1;" d="M 27.28125 28.40625 C 23.15625 28.40625 22.3125 27.46875 21.9375 25.5 C 21.9375 25.292969 21.769531 25.125 21.5625 25.125 L 19.5 25.125 C 19.292969 25.125 19.125 25.292969 19.125 25.5 C 19.125 28.03125 20.53125 31.125 27.28125 31.125 C 32.15625 31.125 34.96875 29.25 34.96875 25.96875 C 34.96875 22.6875 32.71875 21.75 27.9375 21.1875 C 23.15625 20.625 22.6875 20.25 22.6875 19.125 C 22.6875 18 23.0625 17.0625 26.625 17.0625 C 30.1875 17.0625 31.03125 17.71875 31.5 19.78125 C 31.546875 20.003906 31.742188 20.160156 31.96875 20.15625 L 33.9375 20.15625 L 34.3125 19.96875 C 34.382812 19.890625 34.414062 19.789062 34.40625 19.6875 C 34.125 16.03125 31.59375 14.34375 26.625 14.34375 C 21.65625 14.34375 19.59375 16.21875 19.59375 19.21875 C 19.59375 22.21875 22.21875 23.4375 26.4375 23.90625 C 30.65625 24.375 31.96875 25.03125 31.96875 26.0625 C 31.96875 27.09375 30.5625 28.40625 27.28125 28.40625 Z M 27.28125 28.40625 "/>
</g>
</svg>
