<?xml version="1.0" encoding="UTF-8"?>
<svg xmlns="http://www.w3.org/2000/svg" xmlns:xlink="http://www.w3.org/1999/xlink" width="px" height="45px" viewBox="0 0 45 45" version="1.1">
<g id="surface1">
<path style=" stroke:none;fill-rule:nonzero;fill:rgb(0%,0%,0%);fill-opacity:1;" d="M 32.113281 0 C 30.367188 0.0117188 28.628906 0.265625 26.949219 0.753906 L 26.832031 0.792969 C 25.773438 0.605469 24.699219 0.503906 23.625 0.484375 C 21.417969 0.445312 19.519531 0.984375 17.988281 1.875 C 16.480469 1.351562 13.355469 0.449219 10.058594 0.628906 C 7.761719 0.753906 5.257812 1.453125 3.402344 3.414062 C 1.550781 5.371094 0.570312 8.402344 0.777344 12.527344 C 0.835938 13.667969 1.160156 15.523438 1.695312 17.925781 C 2.234375 20.332031 2.992188 23.144531 3.933594 25.710938 C 4.875 28.28125 5.910156 30.585938 7.523438 32.15625 C 8.332031 32.941406 9.441406 33.601562 10.75 33.546875 C 11.667969 33.507812 12.5 33.105469 13.214844 32.511719 C 13.5625 32.96875 13.9375 33.171875 14.277344 33.355469 C 14.703125 33.589844 15.121094 33.75 15.550781 33.855469 C 16.324219 34.046875 17.652344 34.308594 19.203125 34.042969 C 19.734375 33.953125 20.289062 33.78125 20.84375 33.535156 C 20.863281 34.15625 20.890625 34.761719 20.914062 35.375 C 20.992188 37.316406 21.039062 39.109375 21.621094 40.683594 C 21.714844 40.941406 21.972656 42.265625 22.984375 43.433594 C 24 44.601562 25.980469 45.332031 28.242188 44.847656 C 29.835938 44.507812 31.863281 43.890625 33.207031 41.976562 C 34.539062 40.082031 35.140625 37.363281 35.257812 32.957031 C 35.289062 32.71875 35.324219 32.519531 35.359375 32.328125 L 35.675781 32.355469 L 35.714844 32.355469 C 37.414062 32.433594 39.261719 32.191406 40.800781 31.476562 C 42.167969 30.84375 43.199219 30.203125 43.953125 29.070312 C 44.140625 28.789062 44.34375 28.449219 44.402344 27.863281 C 44.457031 27.28125 44.121094 26.363281 43.566406 25.941406 C 42.449219 25.09375 41.75 25.417969 40.996094 25.574219 C 40.257812 25.738281 39.5 25.828125 38.742188 25.847656 C 40.910156 22.195312 42.464844 18.320312 43.351562 14.886719 C 43.875 12.863281 44.171875 10.996094 44.195312 9.363281 C 44.21875 7.730469 44.085938 6.28125 43.109375 5.03125 C 40.050781 1.125 35.75 0.046875 32.425781 0.0078125 C 32.320312 0.00390625 32.21875 0.00390625 32.113281 0.00390625 Z M 32.027344 1.199219 C 35.171875 1.171875 39.191406 2.054688 42.078125 5.742188 C 42.726562 6.570312 42.921875 7.78125 42.898438 9.273438 C 42.875 10.765625 42.597656 12.550781 42.09375 14.503906 C 41.113281 18.292969 39.265625 22.707031 36.660156 26.671875 C 36.753906 26.734375 36.851562 26.789062 36.957031 26.832031 C 37.5 27.054688 38.742188 27.25 41.214844 26.742188 C 41.835938 26.609375 42.292969 26.523438 42.765625 26.882812 C 42.996094 27.078125 43.125 27.375 43.109375 27.679688 C 43.082031 27.90625 43 28.125 42.863281 28.308594 C 42.386719 29.027344 41.441406 29.707031 40.234375 30.269531 C 39.164062 30.765625 37.628906 31.027344 36.265625 31.042969 C 35.582031 31.050781 34.953125 30.996094 34.417969 30.832031 L 34.386719 30.816406 C 34.179688 32.804688 33.703125 36.730469 33.394531 38.519531 C 33.148438 39.964844 32.714844 41.109375 31.886719 41.96875 C 31.0625 42.828125 29.894531 43.347656 28.324219 43.683594 C 26.378906 44.101562 24.957031 43.652344 24.042969 42.882812 C 23.128906 42.113281 22.710938 41.09375 22.460938 40.46875 C 22.289062 40.035156 22.199219 39.476562 22.113281 38.730469 C 22.027344 37.984375 21.960938 37.074219 21.917969 36.042969 C 21.859375 34.46875 21.84375 32.890625 21.863281 31.3125 C 21.050781 32.058594 20.039062 32.550781 18.953125 32.738281 C 17.660156 32.957031 16.507812 32.742188 15.820312 32.570312 C 15.480469 32.484375 15.152344 32.355469 14.84375 32.191406 C 14.527344 32.019531 14.222656 31.828125 14.019531 31.449219 C 13.898438 31.230469 13.863281 30.976562 13.914062 30.734375 C 13.976562 30.488281 14.121094 30.269531 14.320312 30.113281 C 14.691406 29.8125 15.183594 29.640625 15.925781 29.488281 C 17.273438 29.210938 17.742188 29.019531 18.03125 28.792969 C 18.273438 28.597656 18.550781 28.207031 19.035156 27.628906 C 18.160156 27.527344 17.304688 27.296875 16.539062 26.878906 C 16.257812 27.175781 14.820312 28.695312 13.070312 30.800781 C 12.332031 31.683594 11.519531 32.191406 10.660156 32.226562 C 9.800781 32.261719 9.023438 31.828125 8.363281 31.191406 C 7.046875 29.910156 5.996094 27.707031 5.078125 25.21875 C 4.164062 22.726562 3.417969 19.953125 2.890625 17.589844 C 2.359375 15.230469 2.046875 13.324219 2 12.40625 C 1.804688 8.5 2.71875 5.871094 4.28125 4.210938 C 5.851562 2.550781 8 1.921875 10.09375 1.804688 C 13.851562 1.589844 17.421875 2.898438 18.144531 3.179688 C 19.535156 2.234375 21.328125 1.644531 23.566406 1.683594 C 24.628906 1.699219 25.6875 1.835938 26.71875 2.09375 L 26.757812 2.074219 C 27.210938 1.917969 27.671875 1.78125 28.140625 1.675781 C 29.414062 1.378906 30.71875 1.21875 32.023438 1.203125 Z M 32.3125 2.457031 L 32.039062 2.457031 C 30.964844 2.472656 29.894531 2.59375 28.84375 2.816406 C 31.179688 3.851562 32.945312 5.445312 34.1875 7.035156 C 35.050781 8.136719 35.765625 9.347656 36.308594 10.636719 C 36.515625 11.128906 36.65625 11.546875 36.734375 11.871094 C 36.773438 12.035156 36.796875 12.171875 36.808594 12.316406 C 36.8125 12.386719 36.816406 12.460938 36.785156 12.585938 C 36.785156 12.589844 36.777344 12.605469 36.773438 12.609375 C 36.832031 14.25 36.421875 15.367188 36.375 16.933594 C 36.335938 18.070312 36.628906 19.40625 36.699219 20.859375 C 36.765625 22.230469 36.601562 23.734375 35.714844 25.210938 C 35.789062 25.300781 35.855469 25.390625 35.925781 25.480469 C 38.277344 21.777344 39.972656 17.679688 40.875 14.1875 C 41.359375 12.304688 41.617188 10.601562 41.640625 9.25 C 41.660156 7.902344 41.40625 6.921875 41.085938 6.515625 C 38.570312 3.296875 35.164062 2.476562 32.3125 2.453125 Z M 23.332031 2.9375 C 21.113281 2.941406 19.523438 3.609375 18.320312 4.613281 C 17.074219 5.652344 16.242188 7.070312 15.695312 8.523438 C 15.042969 10.25 14.820312 11.917969 14.730469 13.050781 L 14.757812 13.035156 C 15.425781 12.660156 16.304688 12.285156 17.246094 12.066406 C 18.1875 11.851562 19.203125 11.785156 20.121094 12.140625 C 21.039062 12.496094 21.796875 13.335938 22.074219 14.605469 C 23.394531 20.714844 21.664062 22.984375 21.027344 24.699219 C 20.785156 25.320312 20.578125 25.953125 20.40625 26.597656 C 20.484375 26.578125 20.566406 26.554688 20.648438 26.546875 C 21.097656 26.511719 21.449219 26.660156 21.660156 26.75 C 22.300781 27.015625 22.742188 27.574219 22.980469 28.214844 C 23.042969 28.378906 23.085938 28.558594 23.113281 28.746094 C 23.078125 31.320312 23.085938 33.65625 23.175781 35.992188 C 23.21875 37 23.28125 37.890625 23.363281 38.589844 C 23.441406 39.289062 23.558594 39.824219 23.628906 40.003906 C 23.871094 40.601562 24.222656 41.390625 24.855469 41.921875 C 25.488281 42.457031 26.398438 42.8125 28.058594 42.457031 C 29.5 42.144531 30.386719 41.71875 30.984375 41.101562 C 31.574219 40.484375 31.929688 39.625 32.15625 38.308594 C 32.496094 36.339844 33.179688 30.632812 33.261719 29.558594 C 33.222656 28.746094 33.34375 28.125 33.601562 27.652344 C 33.867188 27.164062 34.28125 26.863281 34.636719 26.703125 C 34.816406 26.625 34.980469 26.570312 35.117188 26.53125 C 34.972656 26.320312 34.820312 26.117188 34.664062 25.921875 C 34.148438 25.296875 33.730469 24.601562 33.414062 23.859375 C 33.265625 23.550781 33.101562 23.25 32.933594 22.953125 C 32.683594 22.503906 32.367188 21.941406 32.039062 21.308594 C 31.378906 20.042969 30.660156 18.511719 30.285156 17.015625 C 29.914062 15.523438 29.859375 13.976562 30.8125 12.890625 C 31.65625 11.921875 33.140625 11.519531 35.363281 11.746094 C 35.296875 11.546875 35.257812 11.386719 35.148438 11.121094 C 34.644531 9.9375 33.988281 8.828125 33.195312 7.816406 C 31.3125 5.40625 28.261719 3.015625 23.546875 2.941406 L 23.332031 2.941406 Z M 10.875 3.035156 C 10.640625 3.035156 10.402344 3.042969 10.164062 3.054688 C 8.269531 3.164062 6.480469 3.710938 5.199219 5.070312 C 3.917969 6.425781 3.074219 8.652344 3.257812 12.335938 C 3.292969 13.035156 3.597656 14.988281 4.117188 17.308594 C 4.636719 19.632812 5.375 22.363281 6.257812 24.777344 C 7.144531 27.1875 8.21875 29.289062 9.238281 30.28125 C 9.753906 30.78125 10.199219 30.980469 10.605469 30.964844 C 11.011719 30.945312 11.5 30.710938 12.097656 29.992188 C 13.191406 28.675781 14.320312 27.394531 15.492188 26.152344 C 13.804688 24.6875 12.980469 22.460938 13.304688 20.246094 C 13.5 18.859375 13.523438 17.566406 13.5 16.542969 C 13.480469 15.542969 13.40625 14.878906 13.40625 14.464844 L 13.40625 14.40625 C 13.40625 12.25 13.78125 10.105469 14.515625 8.078125 C 15.042969 6.683594 15.824219 5.265625 16.996094 4.117188 C 15.84375 3.738281 13.800781 3.160156 11.585938 3.050781 C 11.351562 3.039062 11.113281 3.035156 10.875 3.035156 Z M 34.125 12.9375 C 32.851562 12.953125 32.136719 13.28125 31.761719 13.710938 C 31.230469 14.320312 31.179688 15.390625 31.507812 16.707031 C 31.835938 18.023438 32.515625 19.5 33.152344 20.722656 C 33.472656 21.335938 33.78125 21.886719 34.03125 22.335938 C 34.28125 22.785156 34.464844 23.105469 34.578125 23.375 C 34.683594 23.625 34.796875 23.847656 34.914062 24.054688 C 35.40625 23.015625 35.492188 21.992188 35.441406 20.925781 C 35.378906 19.609375 35.070312 18.261719 35.117188 16.894531 C 35.167969 15.300781 35.484375 14.261719 35.511719 13.027344 C 35.050781 12.96875 34.585938 12.9375 34.125 12.9375 Z M 18.683594 13.152344 C 18.296875 13.15625 17.90625 13.203125 17.53125 13.292969 C 16.773438 13.476562 16.046875 13.757812 15.367188 14.132812 C 15.136719 14.257812 14.917969 14.398438 14.714844 14.5625 L 14.671875 14.597656 C 14.683594 14.871094 14.738281 15.535156 14.761719 16.511719 C 14.78125 17.582031 14.757812 18.945312 14.550781 20.421875 C 14.101562 23.625 16.429688 26.28125 19.164062 26.285156 C 19.320312 25.628906 19.585938 24.960938 19.847656 24.257812 C 20.609375 22.207031 22.105469 20.710938 20.84375 14.871094 C 20.636719 13.914062 20.230469 13.527344 19.667969 13.3125 C 19.351562 13.199219 19.019531 13.144531 18.683594 13.152344 Z M 33.527344 13.535156 L 33.621094 13.535156 C 33.746094 13.539062 33.859375 13.550781 33.960938 13.578125 C 34.0625 13.597656 34.148438 13.632812 34.21875 13.679688 L 34.359375 13.902344 C 33.894531 14.644531 33.640625 14.785156 33.363281 14.832031 C 33.089844 14.867188 32.816406 14.796875 32.59375 14.640625 C 32.710938 13.671875 32.953125 13.59375 33.230469 13.554688 C 33.332031 13.539062 33.433594 13.53125 33.527344 13.53125 Z M 18.867188 13.851562 C 18.964844 13.851562 19.070312 13.859375 19.175781 13.875 C 19.464844 13.914062 19.71875 13.992188 19.914062 14.105469 C 20.046875 15.003906 19.957031 15.085938 19.855469 15.152344 C 19.613281 15.328125 19.3125 15.402344 19.015625 15.367188 C 18.714844 15.316406 18.4375 15.164062 18.230469 14.9375 C 18.140625 14.847656 18.066406 14.742188 18.007812 14.628906 C 17.957031 14.097656 18.125 13.992188 18.289062 13.933594 C 18.472656 13.875 18.667969 13.847656 18.863281 13.859375 Z M 35.855469 27.617188 L 35.847656 27.621094 C 35.574219 27.71875 35.34375 27.761719 35.15625 27.84375 C 34.960938 27.921875 34.800781 28.0625 34.707031 28.246094 C 34.589844 28.460938 34.488281 28.84375 34.515625 29.496094 C 35.113281 29.722656 35.652344 29.789062 36.253906 29.777344 C 37.449219 29.765625 38.921875 29.484375 39.703125 29.121094 C 40.34375 28.824219 40.941406 28.4375 41.472656 27.96875 L 41.46875 27.96875 C 38.859375 28.507812 37.382812 28.363281 36.476562 27.992188 C 36.25 27.898438 36.042969 27.773438 35.855469 27.617188 Z M 20.796875 27.796875 L 20.757812 27.796875 C 20.65625 27.804688 20.511719 27.839844 20.234375 28.148438 C 19.582031 28.878906 19.351562 29.339844 18.8125 29.765625 C 18.277344 30.195312 17.578125 30.421875 16.179688 30.710938 C 15.738281 30.800781 15.484375 30.898438 15.316406 30.980469 C 15.371094 31.027344 15.363281 31.035156 15.445312 31.078125 C 15.652344 31.191406 15.914062 31.292969 16.125 31.347656 C 16.726562 31.496094 17.710938 31.671875 18.742188 31.496094 C 19.769531 31.320312 20.839844 30.828125 21.753906 29.546875 C 21.910156 29.324219 21.929688 29 21.796875 28.648438 C 21.667969 28.296875 21.378906 27.996094 21.179688 27.910156 C 21.058594 27.851562 20.929688 27.816406 20.796875 27.796875 Z M 20.796875 27.796875 "/>
</g>
</svg>
