<?xml version="1.0" encoding="UTF-8"?>
<svg xmlns="http://www.w3.org/2000/svg" xmlns:xlink="http://www.w3.org/1999/xlink" width="px" height="45px" viewBox="0 0 45 45" version="1.1">
<g id="surface1">
<path style=" stroke:none;fill-rule:nonzero;fill:rgb(0%,0%,0%);fill-opacity:1;" d="M 8.4375 2.8125 L 36.5625 2.8125 C 39.65625 2.8125 42.1875 5.34375 42.1875 8.4375 L 42.1875 36.5625 C 42.1875 39.65625 39.65625 42.1875 36.5625 42.1875 L 8.4375 42.1875 C 5.34375 42.1875 2.8125 39.65625 2.8125 36.5625 L 2.8125 8.4375 C 2.8125 5.34375 5.34375 2.8125 8.4375 2.8125 Z M 8.4375 2.8125 "/>
<path style=" stroke:none;fill-rule:nonzero;fill:rgb(100%,100%,100%);fill-opacity:1;" d="M 38.671875 22.5 C 38.671875 20.25 36 18.421875 32.0625 17.15625 C 33.046875 13.078125 32.625 9.84375 30.796875 8.859375 C 30.234375 8.578125 29.8125 8.4375 29.25 8.4375 C 27.421875 8.4375 25.171875 9.703125 22.921875 11.953125 C 20.53125 9.703125 18.28125 8.4375 16.453125 8.4375 C 15.890625 8.4375 15.328125 8.578125 14.90625 8.859375 C 13.078125 9.84375 12.65625 13.078125 13.640625 17.15625 C 9.703125 18.421875 7.03125 20.25 7.03125 22.5 C 7.03125 24.75 9.703125 26.578125 13.640625 27.84375 C 12.65625 31.921875 12.9375 35.15625 14.90625 36.28125 C 15.328125 36.5625 15.890625 36.703125 16.453125 36.703125 C 18.28125 36.703125 20.53125 35.4375 22.78125 33.1875 C 25.03125 35.4375 27.421875 36.703125 29.109375 36.703125 C 29.671875 36.703125 30.234375 36.5625 30.65625 36.28125 C 32.484375 35.15625 32.90625 31.921875 31.921875 27.84375 C 36 26.578125 38.671875 24.609375 38.671875 22.5 Z M 29.25 9.984375 C 29.53125 9.984375 29.8125 9.984375 29.953125 10.125 C 30.796875 10.6875 31.21875 12.515625 30.9375 14.90625 C 30.796875 15.46875 30.796875 16.171875 30.65625 16.734375 C 29.390625 16.453125 27.984375 16.171875 26.578125 16.03125 C 25.734375 14.90625 24.890625 13.78125 24.046875 12.9375 C 26.015625 10.96875 27.984375 9.984375 29.25 9.984375 Z M 27.140625 25.03125 C 26.71875 25.875 26.15625 26.578125 25.734375 27.421875 C 24.75 27.421875 23.90625 27.5625 22.921875 27.5625 C 21.9375 27.5625 20.953125 27.5625 20.109375 27.421875 C 19.546875 26.71875 19.125 25.875 18.703125 25.03125 C 18.28125 24.1875 17.859375 23.34375 17.4375 22.5 C 17.859375 21.65625 18.28125 20.8125 18.703125 19.96875 C 19.125 19.125 19.6875 18.28125 20.25 17.578125 C 21.09375 17.578125 22.078125 17.4375 23.0625 17.4375 C 24.046875 17.4375 24.890625 17.4375 25.875 17.578125 C 26.4375 18.28125 26.859375 19.125 27.421875 19.96875 C 27.84375 20.8125 28.265625 21.65625 28.6875 22.5 C 28.125 23.34375 27.5625 24.1875 27.140625 25.03125 Z M 29.25 24.328125 C 29.53125 25.171875 29.8125 25.875 30.09375 26.71875 C 29.25 26.859375 28.40625 27 27.5625 27.140625 C 27.84375 26.71875 28.125 26.296875 28.40625 25.734375 C 28.6875 25.3125 28.96875 24.75 29.25 24.328125 Z M 22.78125 30.9375 C 22.21875 30.375 21.65625 29.671875 21.09375 28.96875 C 21.65625 28.96875 22.21875 28.96875 22.78125 28.96875 C 23.34375 28.96875 23.90625 28.96875 24.46875 28.96875 C 23.90625 29.671875 23.34375 30.375 22.78125 30.9375 Z M 18 27.140625 C 17.15625 27 16.3125 26.859375 15.46875 26.71875 C 15.75 25.875 16.03125 25.171875 16.3125 24.328125 C 16.59375 24.75 16.875 25.3125 17.15625 25.734375 C 17.4375 26.296875 17.71875 26.71875 18 27.140625 Z M 16.453125 20.671875 C 16.171875 19.828125 15.890625 18.984375 15.609375 18.28125 C 16.453125 18.140625 17.296875 18 18.140625 17.859375 C 17.859375 18.28125 17.578125 18.84375 17.296875 19.265625 C 16.875 19.6875 16.59375 20.25 16.453125 20.671875 Z M 22.78125 14.0625 C 23.34375 14.625 23.90625 15.328125 24.46875 16.03125 C 23.90625 16.03125 23.34375 16.03125 22.78125 16.03125 C 22.21875 16.03125 21.65625 16.03125 21.09375 16.03125 C 21.65625 15.328125 22.21875 14.625 22.78125 14.0625 Z M 28.40625 19.265625 C 28.125 18.703125 27.84375 18.28125 27.5625 17.859375 C 28.40625 18 29.25 18.140625 30.09375 18.28125 C 29.8125 19.125 29.53125 19.96875 29.25 20.671875 C 28.96875 20.25 28.6875 19.6875 28.40625 19.265625 Z M 14.765625 14.90625 C 14.484375 12.515625 14.765625 10.6875 15.75 10.125 C 15.890625 9.984375 16.171875 9.984375 16.453125 9.984375 C 17.71875 9.984375 19.6875 10.96875 21.796875 13.078125 C 20.953125 14.0625 20.109375 15.046875 19.265625 16.171875 C 17.859375 16.3125 16.453125 16.59375 15.1875 16.875 C 14.90625 16.171875 14.765625 15.46875 14.765625 14.90625 Z M 12.234375 25.59375 C 9.984375 24.609375 8.578125 23.484375 8.578125 22.359375 C 8.578125 21.375 9.984375 20.109375 12.234375 19.125 C 12.796875 18.84375 13.359375 18.703125 14.0625 18.5625 C 14.484375 19.828125 14.90625 21.09375 15.46875 22.359375 C 14.90625 23.625 14.34375 24.890625 14.0625 26.15625 C 13.359375 26.15625 12.796875 25.875 12.234375 25.59375 Z M 15.75 34.875 C 14.90625 34.3125 14.484375 32.484375 14.765625 30.09375 C 14.90625 29.53125 14.90625 28.828125 15.1875 28.125 C 16.453125 28.40625 17.71875 28.6875 19.125 28.828125 C 19.96875 29.953125 20.8125 31.078125 21.796875 32.0625 C 19.6875 34.03125 17.71875 35.15625 16.453125 35.15625 C 16.171875 35.015625 15.890625 35.015625 15.75 34.875 Z M 30.9375 30.09375 C 31.21875 32.484375 30.9375 34.3125 29.953125 34.875 C 29.8125 35.015625 29.53125 35.015625 29.25 35.015625 C 27.984375 35.015625 26.015625 34.03125 23.90625 31.921875 C 24.75 30.9375 25.734375 29.953125 26.578125 28.6875 C 27.984375 28.546875 29.390625 28.40625 30.515625 27.984375 C 30.65625 28.828125 30.796875 29.53125 30.9375 30.09375 Z M 33.46875 25.59375 C 32.90625 25.875 32.34375 26.015625 31.640625 26.296875 C 31.21875 25.03125 30.796875 23.765625 30.234375 22.5 C 30.796875 21.234375 31.359375 19.828125 31.640625 18.703125 C 32.34375 18.84375 32.90625 19.125 33.46875 19.265625 C 35.71875 20.25 37.125 21.375 37.125 22.5 C 37.125 23.484375 35.71875 24.75 33.46875 25.59375 Z M 33.46875 25.59375 "/>
<path style=" stroke:none;fill-rule:nonzero;fill:rgb(100%,100%,100%);fill-opacity:1;" d="M 22.921875 25.453125 C 24.609375 25.453125 25.875 24.1875 25.875 22.5 C 25.875 20.8125 24.609375 19.546875 22.921875 19.546875 C 21.234375 19.546875 19.96875 20.8125 19.96875 22.5 C 19.96875 24.1875 21.234375 25.453125 22.921875 25.453125 Z M 22.921875 25.453125 "/>
</g>
</svg>
