<?xml version="1.0" encoding="UTF-8"?>
<svg xmlns="http://www.w3.org/2000/svg" xmlns:xlink="http://www.w3.org/1999/xlink" width="px" height="45px" viewBox="0 0 45 45" version="1.1">
<g id="surface1">
<path style=" stroke:none;fill-rule:nonzero;fill:rgb(0%,0%,0%);fill-opacity:1;" d="M 0 22.5 L 0 45 L 45 45 L 45 0 L 0 0 Z M 36.265625 20.707031 C 37.40625 20.992188 38.277344 21.5 39.078125 22.328125 C 39.492188 22.773438 40.109375 23.578125 40.15625 23.773438 C 40.171875 23.828125 38.214844 25.140625 37.03125 25.878906 C 36.984375 25.90625 36.8125 25.722656 36.621094 25.4375 C 36.042969 24.59375 35.4375 24.230469 34.507812 24.164062 C 33.140625 24.070312 32.265625 24.785156 32.273438 25.976562 C 32.261719 26.269531 32.324219 26.5625 32.464844 26.820312 C 32.765625 27.441406 33.324219 27.816406 35.070312 28.570312 C 38.292969 29.957031 39.671875 30.871094 40.527344 32.171875 C 41.484375 33.621094 41.699219 35.9375 41.050781 37.65625 C 40.335938 39.527344 38.566406 40.800781 36.070312 41.21875 C 35.300781 41.355469 33.472656 41.335938 32.644531 41.1875 C 30.835938 40.863281 29.121094 39.972656 28.066406 38.800781 C 27.652344 38.34375 26.84375 37.148438 26.894531 37.066406 C 26.914062 37.035156 27.097656 36.921875 27.304688 36.800781 C 27.507812 36.6875 28.265625 36.25 28.976562 35.835938 L 30.273438 35.085938 L 30.542969 35.484375 C 30.921875 36.0625 31.75 36.855469 32.25 37.121094 C 33.6875 37.878906 35.65625 37.773438 36.628906 36.898438 C 37.023438 36.566406 37.242188 36.066406 37.214844 35.550781 C 37.214844 35.027344 37.148438 34.800781 36.878906 34.40625 C 36.527344 33.90625 35.8125 33.488281 33.785156 32.605469 C 31.464844 31.605469 30.464844 30.984375 29.550781 30 C 28.980469 29.347656 28.558594 28.582031 28.3125 27.75 C 28.144531 27.113281 28.101562 25.519531 28.234375 24.878906 C 28.714844 22.636719 30.40625 21.074219 32.851562 20.609375 C 33.644531 20.457031 35.484375 20.515625 36.265625 20.707031 Z M 25.699219 22.585938 L 25.714844 24.429688 L 19.855469 24.429688 L 19.855469 41.070312 L 15.710938 41.070312 L 15.710938 24.429688 L 9.859375 24.429688 L 9.859375 22.621094 C 9.859375 21.621094 9.878906 20.785156 9.90625 20.765625 C 9.929688 20.734375 13.496094 20.71875 17.8125 20.726562 L 25.679688 20.75 Z M 25.699219 22.585938 "/>
</g>
</svg>
